<svg id="eMeXElBm7Yh1" xmlns="http://www.w3.org/2000/svg" xmlns:xlink="http://www.w3.org/1999/xlink" viewBox="-4.54 -4.54 54.48 54.48" shape-rendering="geometricPrecision" text-rendering="geometricPrecision"><g><rect width="54.48" height="54.48" rx="5.448" ry="5.448" transform="translate(-4.54-4.54)" fill="#7ed0ec" stroke="#f5f5f5" stroke-width="0"/></g><rect width="27.24" height="54.48" rx="0" ry="0" transform="translate(-4.54-4.54)" fill="#fdfa45" stroke-width="0"/><rect width="27.24" height="54.48" rx="0" ry="0" transform="translate(22.7-4.54)" fill="#61dafb" stroke-width="0"/><g transform="translate(-.0015-.0015)"><g><path d="M41.267,18.557h-14.435v-14.423C26.832,1.851,24.99,0,22.707,0s-4.124,1.851-4.124,4.135v14.432h-14.442c-2.283,0-4.139,1.851-4.138,4.135-.001,1.141.46,2.187,1.207,2.934.748.749,1.78,1.222,2.92,1.222h14.453v14.412c0,1.142.453,2.176,1.201,2.922.748.748,1.777,1.211,2.919,1.211c2.282,0,4.129-1.851,4.129-4.133v-14.413h14.435c2.283,0,4.134-1.867,4.133-4.15-.001-2.282-1.852-4.15-4.133-4.15Z" fill="#f5f5f5" stroke="#f5f5f5"/></g></g></svg>
